<?xml version="1.0" encoding="UTF-8" standalone="no"?>
<svg width="90px" height="57px" viewBox="0 0 90 57" version="1.1" xmlns="http://www.w3.org/2000/svg" xmlns:xlink="http://www.w3.org/1999/xlink">
    <!-- Generator: Sketch 39.1 (31720) - http://www.bohemiancoding.com/sketch -->
    <title>Group 16</title>
    <desc>Created with Sketch.</desc>
    <defs></defs>
    <g id="Page-1" stroke="none" stroke-width="1" fill="none" fill-rule="evenodd">
        <g id="Home" transform="translate(-578.000000, -5323.000000)" fill="#2D3238">
            <g id="Group-16" transform="translate(578.000000, 5323.000000)">
                <g id="ho">
                    <path d="M60.86,56.05 L59.36,56.05 L63.83,44.125 L65.33,44.125 L60.86,56.05 L60.86,56.05 Z M77.3,55 L75.83,55 L75.83,49.27 L75.935,46.54 L75.92,46.54 L72.905,55 L71.57,55 L68.555,46.54 L68.54,46.54 L68.66,49.27 L68.66,55 L67.175,55 L67.175,45.1 L69.56,45.1 L71.555,50.83 L72.245,53.185 L72.275,53.185 L72.98,50.83 L74.96,45.1 L77.3,45.1 L77.3,55 L77.3,55 Z M86.8325,45.565 C87.537504,45.9750021 88.079998,46.5649961 88.46,47.335 C88.840002,48.1050039 89.03,49.0099948 89.03,50.05 C89.03,51.0900052 88.840002,51.9949961 88.46,52.765 C88.079998,53.5350038 87.537504,54.1249979 86.8325,54.535 C86.127496,54.945002 85.300005,55.15 84.35,55.15 C83.399995,55.15 82.575004,54.945002 81.875,54.535 C81.174996,54.1249979 80.635002,53.5350038 80.255,52.765 C79.874998,51.9949961 79.685,51.0900052 79.685,50.05 C79.685,49.0099948 79.874998,48.1050039 80.255,47.335 C80.635002,46.5649961 81.174996,45.9750021 81.875,45.565 C82.575004,45.1549979 83.399995,44.95 84.35,44.95 C85.300005,44.95 86.127496,45.1549979 86.8325,45.565 L86.8325,45.565 L86.8325,45.565 Z M82.16,47.32 C81.629997,47.9700033 81.365,48.8799942 81.365,50.05 C81.365,51.2200059 81.629997,52.1299968 82.16,52.78 C82.690003,53.4300032 83.419995,53.755 84.35,53.755 C85.290005,53.755 86.024997,53.4300032 86.555,52.78 C87.085003,52.1299968 87.35,51.2200059 87.35,50.05 C87.35,48.8799942 87.085003,47.9700033 86.555,47.32 C86.024997,46.6699967 85.290005,46.345 84.35,46.345 C83.419995,46.345 82.690003,46.6699967 82.16,47.32 L82.16,47.32 L82.16,47.32 Z" id="/MO"></path>
                    <path d="M6.417,17.977 C3.70298643,17.7469988 1.87833801,16.5433442 0.943,14.366 L2.714,13.078 C2.92866774,13.8600039 3.37332996,14.5154974 4.048,15.0445 C4.72267004,15.5735026 5.51232881,15.9146659 6.417,16.068 L6.417,11.284 C5.40499494,11.0693323 4.55783674,10.831668 3.8755,10.571 C3.19316325,10.310332 2.62583559,9.9155026 2.1735,9.3865 C1.72116441,8.8574974 1.495,8.1560044 1.495,7.282 C1.495,6.1013274 1.93582893,5.1008374 2.8175,4.2805 C3.69917107,3.4601626 4.89899241,2.9810007 6.417,2.843 L6.417,0.612 L8.188,0.612 L8.188,2.866 C9.36867257,2.9580005 10.3423295,3.2493309 11.109,3.74 C11.8756705,4.2306691 12.5503304,4.9513286 13.133,5.902 L11.5,7.397 C11.1013313,6.5689959 10.6451692,5.9480021 10.1315,5.534 C9.61783077,5.1199979 8.97000391,4.8670005 8.188,4.775 L8.188,9.628 C9.20000506,9.8426677 10.0471633,10.0841653 10.7295,10.3525 C11.4118367,10.6208347 11.9791644,11.0271639 12.4315,11.5715 C12.8838356,12.1158361 13.11,12.8326622 13.11,13.722 C13.11,14.918006 12.6615045,15.8954962 11.7645,16.6545 C10.8674955,17.4135038 9.67534077,17.8543327 8.188,17.977 L8.188,20.208 L6.417,20.208 L6.417,17.977 L6.417,17.977 Z M6.417,4.775 C5.55832904,4.8670005 4.90666889,5.1161646 4.462,5.5225 C4.01733111,5.9288354 3.795,6.4616634 3.795,7.121 C3.795,7.719003 4.0211644,8.1751651 4.4735,8.4895 C4.92583559,8.8038349 5.57366245,9.0606657 6.417,9.26 L6.417,4.775 L6.417,4.775 Z M10.833,13.883 C10.833,13.2696636 10.6068356,12.8020016 10.1545,12.48 C9.7021644,12.1579984 9.04667096,11.8896677 8.188,11.675 L8.188,16.091 C9.95134215,15.9223325 10.833,15.1863398 10.833,13.883 L10.833,13.883 L10.833,13.883 Z" id="$"></path>
                </g>
                <path d="M34.8971763,55.948 C48.9591763,55.948 54.3311763,41.175 54.3311763,28.693 C54.3311763,16.132 48.9591763,1.517 34.8971763,1.517 C20.6771763,1.517 15.3841763,16.132 15.3841763,28.693 C15.3841763,41.175 20.6771763,55.948 34.8971763,55.948 L34.8971763,55.948 Z M34.8971763,51.84 C23.7581763,51.84 20.1241763,39.516 20.1241763,28.693 C20.1241763,17.791 23.7581763,5.625 34.8971763,5.625 C45.9571763,5.625 49.5121763,17.791 49.5121763,28.693 C49.5121763,39.516 45.8781763,51.84 34.8971763,51.84 L34.8971763,51.84 Z" id="0"></path>
            </g>
        </g>
    </g>
</svg>